<mxfile host="app.diagrams.net" agent="Mozilla/5.0 (Windows NT 10.0; Win64; x64) AppleWebKit/537.36 (KHTML, like Gecko) Chrome/131.0.0.0 Safari/537.36" version="24.8.9">
  <diagram name="Page-1" id="EvoZjNJZ3xUV7IXnyVBL">
    <mxGraphModel dx="637" dy="378" grid="1" gridSize="10" guides="1" tooltips="1" connect="1" arrows="1" fold="1" page="1" pageScale="1" pageWidth="850" pageHeight="1100" math="0" shadow="0">
      <root>
        <mxCell id="0" />
        <mxCell id="1" parent="0" />
        <mxCell id="huzS3ECZo9tg8KVqzTcw-11" style="edgeStyle=orthogonalEdgeStyle;rounded=0;orthogonalLoop=1;jettySize=auto;html=1;entryX=0.5;entryY=0;entryDx=0;entryDy=0;" edge="1" parent="1" source="huzS3ECZo9tg8KVqzTcw-2" target="huzS3ECZo9tg8KVqzTcw-10">
          <mxGeometry relative="1" as="geometry" />
        </mxCell>
        <mxCell id="huzS3ECZo9tg8KVqzTcw-2" value="START" style="rounded=1;whiteSpace=wrap;html=1;arcSize=50;" vertex="1" parent="1">
          <mxGeometry x="375" y="10" width="100" height="40" as="geometry" />
        </mxCell>
        <mxCell id="huzS3ECZo9tg8KVqzTcw-13" value="" style="edgeStyle=orthogonalEdgeStyle;rounded=0;orthogonalLoop=1;jettySize=auto;html=1;" edge="1" parent="1" source="huzS3ECZo9tg8KVqzTcw-10" target="huzS3ECZo9tg8KVqzTcw-12">
          <mxGeometry relative="1" as="geometry" />
        </mxCell>
        <mxCell id="huzS3ECZo9tg8KVqzTcw-10" value="&quot;Input the Employees ID(Max. 10 chars): &quot;" style="shape=parallelogram;perimeter=parallelogramPerimeter;whiteSpace=wrap;html=1;fixedSize=1;" vertex="1" parent="1">
          <mxGeometry x="275" y="100" width="300" height="50" as="geometry" />
        </mxCell>
        <mxCell id="huzS3ECZo9tg8KVqzTcw-17" value="" style="edgeStyle=orthogonalEdgeStyle;rounded=0;orthogonalLoop=1;jettySize=auto;html=1;" edge="1" parent="1" source="huzS3ECZo9tg8KVqzTcw-12" target="huzS3ECZo9tg8KVqzTcw-16">
          <mxGeometry relative="1" as="geometry" />
        </mxCell>
        <mxCell id="huzS3ECZo9tg8KVqzTcw-12" value="รับค่าจากผู้ใช้" style="shape=parallelogram;perimeter=parallelogramPerimeter;whiteSpace=wrap;html=1;fixedSize=1;" vertex="1" parent="1">
          <mxGeometry x="358" y="190" width="135" height="50" as="geometry" />
        </mxCell>
        <mxCell id="huzS3ECZo9tg8KVqzTcw-19" style="edgeStyle=orthogonalEdgeStyle;rounded=0;orthogonalLoop=1;jettySize=auto;html=1;entryX=0.5;entryY=0;entryDx=0;entryDy=0;" edge="1" parent="1" source="huzS3ECZo9tg8KVqzTcw-16" target="huzS3ECZo9tg8KVqzTcw-18">
          <mxGeometry relative="1" as="geometry" />
        </mxCell>
        <mxCell id="huzS3ECZo9tg8KVqzTcw-16" value="&quot;Input the working hrs: &quot;" style="shape=parallelogram;perimeter=parallelogramPerimeter;whiteSpace=wrap;html=1;fixedSize=1;" vertex="1" parent="1">
          <mxGeometry x="339" y="270" width="172" height="50" as="geometry" />
        </mxCell>
        <mxCell id="huzS3ECZo9tg8KVqzTcw-22" value="" style="edgeStyle=orthogonalEdgeStyle;rounded=0;orthogonalLoop=1;jettySize=auto;html=1;" edge="1" parent="1" source="huzS3ECZo9tg8KVqzTcw-18" target="huzS3ECZo9tg8KVqzTcw-21">
          <mxGeometry relative="1" as="geometry" />
        </mxCell>
        <mxCell id="huzS3ECZo9tg8KVqzTcw-18" value="รับค่าจากผู้ใช้" style="shape=parallelogram;perimeter=parallelogramPerimeter;whiteSpace=wrap;html=1;fixedSize=1;" vertex="1" parent="1">
          <mxGeometry x="358" y="360" width="135" height="50" as="geometry" />
        </mxCell>
        <mxCell id="huzS3ECZo9tg8KVqzTcw-24" style="edgeStyle=orthogonalEdgeStyle;rounded=0;orthogonalLoop=1;jettySize=auto;html=1;entryX=0.5;entryY=0;entryDx=0;entryDy=0;" edge="1" parent="1" source="huzS3ECZo9tg8KVqzTcw-21" target="huzS3ECZo9tg8KVqzTcw-23">
          <mxGeometry relative="1" as="geometry" />
        </mxCell>
        <mxCell id="huzS3ECZo9tg8KVqzTcw-21" value="&quot;Salary amount/hr: &quot;" style="shape=parallelogram;perimeter=parallelogramPerimeter;whiteSpace=wrap;html=1;fixedSize=1;" vertex="1" parent="1">
          <mxGeometry x="355" y="450" width="142" height="50" as="geometry" />
        </mxCell>
        <mxCell id="huzS3ECZo9tg8KVqzTcw-26" style="edgeStyle=orthogonalEdgeStyle;rounded=0;orthogonalLoop=1;jettySize=auto;html=1;entryX=0.5;entryY=0;entryDx=0;entryDy=0;" edge="1" parent="1" source="huzS3ECZo9tg8KVqzTcw-23" target="huzS3ECZo9tg8KVqzTcw-25">
          <mxGeometry relative="1" as="geometry" />
        </mxCell>
        <mxCell id="huzS3ECZo9tg8KVqzTcw-23" value="รับค่าจากผู้ใช้" style="shape=parallelogram;perimeter=parallelogramPerimeter;whiteSpace=wrap;html=1;fixedSize=1;" vertex="1" parent="1">
          <mxGeometry x="358" y="530" width="135" height="50" as="geometry" />
        </mxCell>
        <mxCell id="huzS3ECZo9tg8KVqzTcw-28" value="" style="edgeStyle=orthogonalEdgeStyle;rounded=0;orthogonalLoop=1;jettySize=auto;html=1;" edge="1" parent="1" source="huzS3ECZo9tg8KVqzTcw-25" target="huzS3ECZo9tg8KVqzTcw-27">
          <mxGeometry relative="1" as="geometry" />
        </mxCell>
        <mxCell id="huzS3ECZo9tg8KVqzTcw-25" value="&lt;div&gt;&quot;Employees ID = #ID&quot;&amp;nbsp;&lt;/div&gt;&lt;div&gt;&amp;nbsp; &amp;nbsp; &amp;nbsp; &amp;nbsp; &quot;Salary = U$ #hrs * #Salary&quot;&lt;/div&gt;" style="shape=parallelogram;perimeter=parallelogramPerimeter;whiteSpace=wrap;html=1;fixedSize=1;" vertex="1" parent="1">
          <mxGeometry x="324" y="620" width="202" height="50" as="geometry" />
        </mxCell>
        <mxCell id="huzS3ECZo9tg8KVqzTcw-27" value="END" style="rounded=1;whiteSpace=wrap;html=1;arcSize=50;" vertex="1" parent="1">
          <mxGeometry x="375" y="720" width="100" height="40" as="geometry" />
        </mxCell>
      </root>
    </mxGraphModel>
  </diagram>
</mxfile>
